# xmcd CD database file
# Copyright (C) 1994 Ti Kan
#
# Track frame offsets:
#	150
#	15262
#	35655
#	73785
#	93635
#	107747
#	127555
#	141995
#	157610
#	176037
#
# Disc length: 2817 seconds
#
# Revision: 1
# Processed by: cddbd v1.4b41PL1 Copyright (c) Steve Scherf et al.
# Submitted via: xmcd 1.3
#
DISCID=790aff0a
DTITLE=George Thorogood and the Destroyers
DYEAR=1900
DGENRE=
TTITLE0=You Got to Lose
TTITLE1=Madison Blues
TTITLE2=One Bourbon, One Scotch, One Beer
TTITLE3=Kind Hearted Woman
TTITLE4=Can't Stop Lovin'
TTITLE5=Ride on Josephine
TTITLE6=Homesick Boy
TTITLE7=John Hardy
TTITLE8=I'll Change my Style
TTITLE9=Delaware Slide
EXTD=
EXTT0=
EXTT1=
EXTT2=
EXTT3=
EXTT4=
EXTT5=
EXTT6=
EXTT7=
EXTT8=
EXTT9=
PLAYORDER=
